<svg xmlns="http://www.w3.org/2000/svg" viewBox="0 0 64 64" role="img" aria-label="n1o map favicon">
  <rect width="64" height="64" rx="14" fill="#f8f6ee"/>
  <circle cx="32" cy="32" r="26" fill="#fffdf7" stroke="#151712" stroke-opacity=".18" stroke-width="2"/>
  <path d="M11 24c4-5 10-7 17-7 4 0 7 1 10 3-5 2-9 5-11 9-4-1-9-2-16-5Z" fill="#151712" fill-opacity=".16"/>
  <path d="M12 39c6-4 13-5 20-2 4 2 8 5 13 5-3 5-9 8-16 8-8 0-14-4-17-11Z" fill="#151712" fill-opacity=".12"/>
  <path d="M16 20c5-2 12-3 19-2 11 1 18 5 19 10 .5 3-2 5-7 5l-7-1-4 3-7-1-4 2-5-3-6 1 3-5-4-3 5-2-2-4Z" fill="#ea6a1f"/>
  <path d="M21 25c5-2 11-2 17-1 5 1 9 2 13 4" fill="none" stroke="#fffdf7" stroke-opacity=".72" stroke-width="2.2" stroke-linecap="round"/>
  <path d="M32 8v48M8 32h48M16 14c7 5 25 5 32 0M16 50c7-5 25-5 32 0" fill="none" stroke="#151712" stroke-opacity=".09" stroke-width="1.2"/>
</svg>
